<?xml version="1.0" encoding="UTF-8" standalone="no"?>
<!-- Created with Inkscape (http://www.inkscape.org/) -->

<svg
   xmlns:dc="http://purl.org/dc/elements/1.1/"
   xmlns:cc="http://creativecommons.org/ns#"
   xmlns:rdf="http://www.w3.org/1999/02/22-rdf-syntax-ns#"
   xmlns:svg="http://www.w3.org/2000/svg"
   xmlns="http://www.w3.org/2000/svg"
   xmlns:xlink="http://www.w3.org/1999/xlink"
   xmlns:sodipodi="http://sodipodi.sourceforge.net/DTD/sodipodi-0.dtd"
   xmlns:inkscape="http://www.inkscape.org/namespaces/inkscape"
   width="210mm"
   height="297mm"
   id="svg2"
   version="1.1"
   inkscape:version="0.48.4 r9939"
   sodipodi:docname="icon.svg"
   inkscape:export-filename="D:\QtProjects\KanmusuMemory\resources\KanmusuMemory512.png"
   inkscape:export-xdpi="158.50613"
   inkscape:export-ydpi="158.50613">
  <defs
     id="defs4">
    <linearGradient
       id="linearGradient3772">
      <stop
         style="stop-color:#3c3a39;stop-opacity:1;"
         offset="0"
         id="stop3774" />
      <stop
         style="stop-color:#3c3a39;stop-opacity:0.65789473;"
         offset="1"
         id="stop3776" />
    </linearGradient>
    <linearGradient
       inkscape:collect="always"
       xlink:href="#linearGradient3772"
       id="linearGradient3780"
       x1="410"
       y1="542.36218"
       x2="210"
       y2="342.36218"
       gradientUnits="userSpaceOnUse"
       gradientTransform="matrix(1.0382653,0,0,1.0382653,-6.4777701,-11.54265)" />
  </defs>
  <sodipodi:namedview
     id="base"
     pagecolor="#ffffff"
     bordercolor="#666666"
     borderopacity="1.0"
     inkscape:pageopacity="0.0"
     inkscape:pageshadow="2"
     inkscape:zoom="1.3909524"
     inkscape:cx="275.3509"
     inkscape:cy="571.26914"
     inkscape:document-units="px"
     inkscape:current-layer="g2992"
     showgrid="true"
     inkscape:window-width="1500"
     inkscape:window-height="976"
     inkscape:window-x="78"
     inkscape:window-y="78"
     inkscape:window-maximized="0">
    <inkscape:grid
       type="xygrid"
       id="grid2985"
       empspacing="5"
       visible="true"
       enabled="true"
       snapvisiblegridlinesonly="true" />
  </sodipodi:namedview>
  <metadata
     id="metadata7">
    <rdf:RDF>
      <cc:Work
         rdf:about="">
        <dc:format>image/svg+xml</dc:format>
        <dc:type
           rdf:resource="http://purl.org/dc/dcmitype/StillImage" />
        <dc:title></dc:title>
      </cc:Work>
    </rdf:RDF>
  </metadata>
  <g
     inkscape:groupmode="layer"
     id="layer2"
     inkscape:label="背景"
     sodipodi:insensitive="true">
    <rect
       style="fill:url(#linearGradient3780);fill-opacity:1;stroke:none"
       id="rect3760"
       width="290.71429"
       height="290.71429"
       x="169.28572"
       y="301.64789"
       ry="51.913261" />
  </g>
  <g
     inkscape:label="耳"
     inkscape:groupmode="layer"
     id="layer1"
     sodipodi:insensitive="true"
     style="display:none">
    <g
       id="g3782"
       transform="translate(-6.048919,0.3185104)">
      <path
         sodipodi:nodetypes="cssszczzc"
         inkscape:connector-curvature="0"
         id="path2987"
         d="m 300.43916,572.20782 c 0,0 -16.238,-15.37293 -23.07923,-34.16649 -27.3649,-75.17421 17.88886,-155.49916 -20.52367,-56.38066 -13.02883,33.61919 -7.66665,66.6425 -14.50788,47.84894 -6.84123,-18.79355 -13.73994,-57.09008 -8.57135,-82.01544 5.16858,-24.92534 33.30143,-54.69016 33.30143,-54.69016 0,0 17.21536,11.24115 23.07922,34.16649 5.86387,22.92535 0.86507,31.61094 1.73013,63.22189 0.86506,31.61094 8.57135,82.01543 8.57135,82.01543 z"
         style="fill:#ffffff;fill-opacity:1;stroke:none" />
      <path
         sodipodi:nodetypes="czsczzc"
         inkscape:connector-curvature="0"
         id="path2989"
         d="m 301.9967,575.1952 c 0,0 -4.2403,-62.88682 2.87516,-99.95866 7.11545,-37.07183 22.29186,-79.39189 43.43365,-118.80033 17.04505,-31.77209 61.12526,-38.25836 61.12526,-38.25836 0,0 -11.14593,39.69594 -32.57524,89.10024 -21.42931,49.4043 -41.06214,48.66252 -52.27946,78.52935 -11.21731,29.86683 -22.57937,89.38776 -22.57937,89.38776 z"
         style="fill:#ffffff;fill-opacity:1;stroke:none" />
    </g>
  </g>
  <g
     id="g2992"
     inkscape:groupmode="layer"
     inkscape:label="耳 コピー">
    <path
       sodipodi:nodetypes="cssszczzc"
       inkscape:connector-curvature="0"
       id="path2996"
       d="m 294.39024,572.52633 c 0,0 -18.9902,-30.90695 -24.39024,-50.16415 -21.31101,-75.99766 -10,-60 -20,-80 -16.12452,-32.24903 -40,-59.99999 -40,-80 0,-10 0,0 20,10 20,10 31.00954,20.76034 31.00954,20.76034 0,0 17.21536,11.24115 23.07922,34.16649 5.86387,22.92535 0.86507,31.61094 1.73013,63.22189 0.86506,31.61094 8.57135,82.01543 8.57135,82.01543 z"
       style="fill:#ffffff;fill-opacity:1;stroke:none" />
    <path
       sodipodi:nodetypes="czsczzc"
       inkscape:connector-curvature="0"
       id="path2998"
       d="m 295.34374,572.52633 c 0,0 -1.96758,-62.9989 6.48138,-99.78974 8.44896,-36.79083 25.14306,-78.53551 47.69356,-117.15514 18.18078,-31.13612 62.46639,-36.02705 62.46639,-36.02705 0,0 -12.57152,39.26775 -35.77016,87.86634 -23.19864,48.5986 -42.7919,47.14863 -55.07998,76.5911 -12.28807,29.44247 -25.79119,88.51449 -25.79119,88.51449 z"
       style="fill:#ffffff;fill-opacity:1;stroke:none" />
  </g>
</svg>
