<?xml version="1.0" encoding="UTF-8" standalone="no"?>
<!-- Created with Inkscape (http://www.inkscape.org/) -->

<svg
   xmlns:dc="http://purl.org/dc/elements/1.1/"
   xmlns:cc="http://creativecommons.org/ns#"
   xmlns:rdf="http://www.w3.org/1999/02/22-rdf-syntax-ns#"
   xmlns:svg="http://www.w3.org/2000/svg"
   xmlns="http://www.w3.org/2000/svg"
   xmlns:sodipodi="http://sodipodi.sourceforge.net/DTD/sodipodi-0.dtd"
   xmlns:inkscape="http://www.inkscape.org/namespaces/inkscape"
   width="210mm"
   height="297mm"
   id="svg2"
   version="1.1"
   inkscape:version="0.48.4 r9939"
   sodipodi:docname="DamageMask.svg"
   inkscape:export-filename="D:\QtProjects\KanmusuMemory\resources\DamageMask.png"
   inkscape:export-xdpi="89.999992"
   inkscape:export-ydpi="89.999992">
  <defs
     id="defs4" />
  <sodipodi:namedview
     id="base"
     pagecolor="#ffffff"
     bordercolor="#666666"
     borderopacity="1.0"
     inkscape:pageopacity="0.0"
     inkscape:pageshadow="2"
     inkscape:zoom="11.2"
     inkscape:cx="301.77799"
     inkscape:cy="520.10995"
     inkscape:document-units="px"
     inkscape:current-layer="layer1"
     showgrid="false"
     inkscape:window-width="1427"
     inkscape:window-height="1041"
     inkscape:window-x="52"
     inkscape:window-y="52"
     inkscape:window-maximized="0" />
  <metadata
     id="metadata7">
    <rdf:RDF>
      <cc:Work
         rdf:about="">
        <dc:format>image/svg+xml</dc:format>
        <dc:type
           rdf:resource="http://purl.org/dc/dcmitype/StillImage" />
        <dc:title></dc:title>
      </cc:Work>
    </rdf:RDF>
  </metadata>
  <g
     inkscape:label="レイヤー 1"
     inkscape:groupmode="layer"
     id="layer1">
    <rect
       style="fill:#000000;fill-opacity:1;stroke:none"
       id="rect2985"
       width="160"
       height="40"
       x="165.58006"
       y="521.70093" />
    <path
       style="fill:#ffffff;fill-opacity:1;stroke:#ffffff;stroke-width:1px;stroke-linecap:butt;stroke-linejoin:miter;stroke-opacity:1"
       d="m 292.50608,530.97214 c 0,0 -1.27114,2.88217 -2.41444,4.10823 -1.1433,1.22606 -3.36075,2.53226 -4.79822,3.283 -1.43747,0.75074 -3.6618,1.38896 -3.6618,1.38896 0,0 -2.51941,0.13595 -2.52539,1.38896 -0.006,1.25301 2.01992,1.70998 4.30847,1.82641 2.28855,0.11643 3.20216,0.18889 4.80457,-0.52674 1.60241,-0.71563 3.31891,-2.1833 4.27149,-3.06744 0.95258,-0.88414 1.89403,-2.0203 1.89403,-2.0203 0,0 0.30409,3.41156 0.78825,4.98314 0.48417,1.57158 1.30976,3.2469 2.05729,4.36077 0.74752,1.11387 2.15292,2.24221 2.15292,2.24221 l 2.22055,0.12627 1.73077,-1.60452 1.53055,1.0038 -1.26269,3.53554 0.25254,3.15672 3.15673,-0.12627 1.76777,2.90419 c 0,0 2.21969,-0.14362 3.53472,-0.45218 1.31503,-0.30856 1.7254,-0.78207 2.65246,-0.4317 0.92705,0.35038 3.48323,3.84672 3.48323,3.84672 l 4.09291,-3.21537 -3.15672,-3.03046 c 0,0 4.03069,-1.85319 4.04061,-3.28299 0.01,-1.42981 -1.76777,-2.52539 -1.76777,-2.52539 l 3.15673,0 -0.50508,-4.54569 -1.51523,-0.88388 -0.75761,-3.03046 -2.65165,-1.51523 -1.6415,0.63135 -0.63135,1.51523 -2.39911,-3.40927 -1.51523,-1.51523 -4.29315,0.25254 -2.27284,1.38896 1.13642,2.27285 -0.98269,3.11023 -2.7684,1.86022 c 0,0 -2.20832,-1.37075 -3.13506,-2.3838 -0.92674,-1.01305 -1.82518,-2.28887 -2.28816,-3.64013 -0.46298,-1.35127 -0.57369,-3.14191 -0.42214,-4.24983 0.15155,-1.10792 0.88389,-2.27284 0.88389,-2.27284 l 5.20504,2.99983 1.25372,-0.20922 0.82523,-0.94253 0.20921,-1.46927 -0.92721,-3.03046 -2.02031,-0.88388 -1.26269,2.0203 -3.15672,-0.75761 c 0,0 -0.0815,-2.24514 0.3788,-3.15673 0.46026,-0.91159 2.14658,-2.0203 2.14658,-2.0203 l -1.38896,-2.77792 -5.42957,0 -1.35833,5.89766 -4.57632,-1.73078 c 0,0 -1.67861,-0.85231 -2.4884,-0.94253 -0.80979,-0.0902 -1.93102,0.18491 -1.93102,0.18491 0,0 -0.87693,1.18165 -0.25253,2.27285 0.6244,1.0912 3.90536,1.61086 3.90536,1.61086 z"
       id="path3768"
       inkscape:connector-curvature="0"
       sodipodi:nodetypes="czzczzzzczzccccccccszccczccccccccccccccczzzccccccccczccccczczcc" />
  </g>
</svg>
