<?xml version="1.0" encoding="UTF-8" standalone="no"?>
<!-- Created with Inkscape (http://www.inkscape.org/) -->

<svg
   xmlns:dc="http://purl.org/dc/elements/1.1/"
   xmlns:cc="http://creativecommons.org/ns#"
   xmlns:rdf="http://www.w3.org/1999/02/22-rdf-syntax-ns#"
   xmlns:svg="http://www.w3.org/2000/svg"
   xmlns="http://www.w3.org/2000/svg"
   xmlns:sodipodi="http://sodipodi.sourceforge.net/DTD/sodipodi-0.dtd"
   xmlns:inkscape="http://www.inkscape.org/namespaces/inkscape"
   width="210mm"
   height="297mm"
   id="svg2"
   version="1.1"
   inkscape:version="0.48.4 r9939"
   sodipodi:docname="mobile_icon.svg"
   inkscape:export-filename="D:\QtProjects\KanmusuMemory\resources\mobile_icon2.png"
   inkscape:export-xdpi="9.29"
   inkscape:export-ydpi="9.29">
  <defs
     id="defs4" />
  <sodipodi:namedview
     id="base"
     pagecolor="#ffffff"
     bordercolor="#666666"
     borderopacity="1.0"
     inkscape:pageopacity="0.0"
     inkscape:pageshadow="2"
     inkscape:zoom="1"
     inkscape:cx="111.89926"
     inkscape:cy="662.11701"
     inkscape:document-units="px"
     inkscape:current-layer="layer6"
     showgrid="true"
     inkscape:window-width="1560"
     inkscape:window-height="1038"
     inkscape:window-x="26"
     inkscape:window-y="26"
     inkscape:window-maximized="0">
    <inkscape:grid
       type="xygrid"
       id="grid2985"
       empspacing="5"
       visible="true"
       enabled="true"
       snapvisiblegridlinesonly="true" />
  </sodipodi:namedview>
  <metadata
     id="metadata7">
    <rdf:RDF>
      <cc:Work
         rdf:about="">
        <dc:format>image/svg+xml</dc:format>
        <dc:type
           rdf:resource="http://purl.org/dc/dcmitype/StillImage" />
        <dc:title></dc:title>
      </cc:Work>
    </rdf:RDF>
  </metadata>
  <g
     inkscape:groupmode="layer"
     id="layer3"
     inkscape:label="背景"
     style="display:inline">
    <rect
       style="fill:#ffffff;fill-opacity:0;stroke:none"
       id="rect3886"
       width="310"
       height="310"
       x="109.28571"
       y="150.93361"
       rx="0"
       ry="0"
       inkscape:export-xdpi="9.29"
       inkscape:export-ydpi="9.29"
       inkscape:export-filename="D:\QtProjects\KanmusuMemory\resources\g3967.png" />
  </g>
  <g
     inkscape:label="レイヤー 1"
     inkscape:groupmode="layer"
     id="layer1"
     style="display:none"
     sodipodi:insensitive="true">
    <g
       id="g3775">
      <rect
         ry="10"
         y="175.93361"
         x="196.78571"
         height="260"
         width="135"
         id="rect2987"
         style="fill:#46494a;fill-opacity:1;stroke:none" />
      <rect
         ry="8.7351189"
         y="185.93361"
         x="205.78571"
         height="209.64287"
         width="117"
         id="rect2987-1"
         style="fill:#bac6f3;fill-opacity:1;stroke:none" />
      <g
         transform="translate(0.68372173,-1.6377716)"
         id="g3929">
        <path
           sodipodi:type="arc"
           style="fill:#e7f3f3;fill-opacity:1;stroke:none"
           id="path3775-4-4"
           sodipodi:cx="160"
           sodipodi:cy="432.36218"
           sodipodi:rx="10"
           sodipodi:ry="10"
           d="m 170,432.36218 c 0,5.52285 -4.47715,10 -10,10 -5.52285,0 -10,-4.47715 -10,-10 0,-5.52284 4.47715,-10 10,-10 5.52285,0 10,4.47716 10,10 z"
           transform="matrix(0.93214286,0,0,1.0357143,155.70914,-30.410883)" />
        <path
           sodipodi:type="arc"
           style="fill:#e7f3f3;fill-opacity:1;stroke:none;display:inline"
           id="path3775-4-4-1"
           sodipodi:cx="160"
           sodipodi:cy="432.36218"
           sodipodi:rx="10"
           sodipodi:ry="10"
           d="m 170,432.36218 c 0,5.52285 -4.47715,10 -10,10 -5.52285,0 -10,-4.47715 -10,-10 0,-5.52284 4.47715,-10 10,-10 5.52285,0 10,4.47716 10,10 z"
           transform="matrix(0.93214286,0,0,1.0357143,114.45915,-30.410883)" />
        <path
           sodipodi:type="arc"
           style="fill:#e7f3f3;fill-opacity:1;stroke:none;display:inline"
           id="path3775-4-4-1-7"
           sodipodi:cx="160"
           sodipodi:cy="432.36218"
           sodipodi:rx="10"
           sodipodi:ry="10"
           d="m 170,432.36218 c 0,5.52285 -4.47715,10 -10,10 -5.52285,0 -10,-4.47715 -10,-10 0,-5.52284 4.47715,-10 10,-10 5.52285,0 10,4.47716 10,10 z"
           transform="matrix(0.93214286,0,0,1.0357143,73.209143,-30.410883)" />
      </g>
    </g>
  </g>
  <g
     style="display:none"
     id="g3763"
     inkscape:groupmode="layer"
     inkscape:label="携帯"
     sodipodi:insensitive="true">
    <rect
       ry="10"
       y="175.93361"
       x="196.78571"
       height="260"
       width="135"
       id="rect3767"
       style="fill:#46494a;fill-opacity:1;stroke:#46494a;stroke-width:5;stroke-miterlimit:4;stroke-opacity:1;stroke-dasharray:none" />
    <rect
       ry="8.7351189"
       y="185.93361"
       x="205.78571"
       height="209.64287"
       width="117"
       id="rect3769"
       style="fill:#bac6f3;fill-opacity:1;stroke:#46494a;stroke-width:5;stroke-miterlimit:4;stroke-opacity:1;stroke-dasharray:none" />
    <path
       transform="matrix(0.93214286,0,0,1.0357143,156.39286,-32.048655)"
       d="m 170,432.36218 a 10,10 0 1 1 -20,0 10,10 0 1 1 20,0 z"
       sodipodi:ry="10"
       sodipodi:rx="10"
       sodipodi:cy="432.36218"
       sodipodi:cx="160"
       id="path3773"
       style="fill:#ffffff;fill-opacity:1;stroke:#46494a;stroke-width:5.08872271;stroke-miterlimit:4;stroke-opacity:1;stroke-dasharray:none"
       sodipodi:type="arc" />
    <path
       transform="matrix(0.93214286,0,0,1.0357143,115.14287,-32.048655)"
       d="m 170,432.36218 a 10,10 0 1 1 -20,0 10,10 0 1 1 20,0 z"
       sodipodi:ry="10"
       sodipodi:rx="10"
       sodipodi:cy="432.36218"
       sodipodi:cx="160"
       id="path3775"
       style="fill:#ffffff;fill-opacity:1;stroke:#46494a;stroke-width:5.08872271;stroke-miterlimit:4;stroke-opacity:1;stroke-dasharray:none;display:inline"
       sodipodi:type="arc" />
    <path
       transform="matrix(0.93214286,0,0,1.0357143,73.892865,-32.048655)"
       d="m 170,432.36218 a 10,10 0 1 1 -20,0 10,10 0 1 1 20,0 z"
       sodipodi:ry="10"
       sodipodi:rx="10"
       sodipodi:cy="432.36218"
       sodipodi:cx="160"
       id="path3777"
       style="fill:#ffffff;fill-opacity:1;stroke:#46494a;stroke-width:5.08872271;stroke-miterlimit:4;stroke-opacity:1;stroke-dasharray:none;display:inline"
       sodipodi:type="arc" />
  </g>
  <g
     inkscape:label="携帯 コピー"
     inkscape:groupmode="layer"
     id="g3783"
     style="display:none"
     sodipodi:insensitive="true">
    <rect
       style="fill:none;stroke:#46494a;stroke-width:5;stroke-miterlimit:4;stroke-opacity:1;stroke-dasharray:none"
       id="rect3785"
       width="135"
       height="260"
       x="196.78571"
       y="175.93361"
       ry="10" />
    <rect
       style="fill:none;stroke:#46494a;stroke-width:5;stroke-miterlimit:4;stroke-opacity:1;stroke-dasharray:none"
       id="rect3787"
       width="117"
       height="209.64287"
       x="205.78571"
       y="185.93361"
       ry="8.7351189" />
    <path
       sodipodi:type="arc"
       style="fill:#ffffff;fill-opacity:1;stroke:#46494a;stroke-width:5.08872271;stroke-miterlimit:4;stroke-opacity:1;stroke-dasharray:none"
       id="path3789"
       sodipodi:cx="160"
       sodipodi:cy="432.36218"
       sodipodi:rx="10"
       sodipodi:ry="10"
       d="m 170,432.36218 a 10,10 0 1 1 -20,0 10,10 0 1 1 20,0 z"
       transform="matrix(0.93214286,0,0,1.0357143,156.39286,-32.048655)" />
    <path
       sodipodi:type="arc"
       style="fill:#ffffff;fill-opacity:1;stroke:#46494a;stroke-width:5.08872271;stroke-miterlimit:4;stroke-opacity:1;stroke-dasharray:none;display:inline"
       id="path3791"
       sodipodi:cx="160"
       sodipodi:cy="432.36218"
       sodipodi:rx="10"
       sodipodi:ry="10"
       d="m 170,432.36218 a 10,10 0 1 1 -20,0 10,10 0 1 1 20,0 z"
       transform="matrix(0.93214286,0,0,1.0357143,115.14287,-32.048655)" />
    <path
       sodipodi:type="arc"
       style="fill:#ffffff;fill-opacity:1;stroke:#46494a;stroke-width:5.08872271;stroke-miterlimit:4;stroke-opacity:1;stroke-dasharray:none;display:inline"
       id="path3793"
       sodipodi:cx="160"
       sodipodi:cy="432.36218"
       sodipodi:rx="10"
       sodipodi:ry="10"
       d="m 170,432.36218 a 10,10 0 1 1 -20,0 10,10 0 1 1 20,0 z"
       transform="matrix(0.93214286,0,0,1.0357143,73.892865,-32.048655)" />
  </g>
  <g
     inkscape:groupmode="layer"
     id="layer4"
     inkscape:label="星"
     sodipodi:insensitive="true"
     style="display:none">
    <path
       sodipodi:type="star"
       style="fill:none;stroke:#ffa64a;stroke-width:5;stroke-linecap:butt;stroke-linejoin:miter;stroke-miterlimit:4;stroke-opacity:1;stroke-dasharray:none;stroke-dashoffset:0"
       id="path3796"
       sodipodi:sides="5"
       sodipodi:cx="470"
       sodipodi:cy="232.36218"
       sodipodi:r1="150"
       sodipodi:r2="75"
       sodipodi:arg1="0.92729522"
       sodipodi:arg2="1.5556137"
       inkscape:flatsided="false"
       inkscape:rounded="0"
       inkscape:randomized="0"
       d="m 560,352.36218 -88.86135,-45.00864 -87.4539,47.68577 15.3461,-98.4206 L 326.65424,188.18082 425,172.36218 l 42.7227,-89.982709 45.43492,88.644149 98.78069,12.82552 -70.26543,70.60372 z"
       inkscape:transform-center-x="0.70372416"
       inkscape:transform-center-y="-13.652793"
       transform="translate(-205,80)"
       inkscape:export-filename="D:\QtProjects\KanmusuMemory\resources\path2.png"
       inkscape:export-xdpi="9.29"
       inkscape:export-ydpi="9.29" />
  </g>
  <g
     inkscape:groupmode="layer"
     id="layer5"
     inkscape:label="進む"
     sodipodi:insensitive="true"
     style="display:none">
    <text
       xml:space="preserve"
       style="font-size:40px;font-style:normal;font-variant:normal;font-weight:normal;font-stretch:normal;line-height:125%;letter-spacing:0px;word-spacing:0px;fill:#000000;fill-opacity:1;stroke:none;font-family:Papyrus;-inkscape-font-specification:Papyrus"
       x="136"
       y="229.36218"
       id="text4892"
       sodipodi:linespacing="125%"><tspan
         sodipodi:role="line"
         id="tspan4894"
         x="136"
         y="229.36218" /></text>
    <g
       id="g4923"
       transform="matrix(-1,0,0,1,519.28571,-16.928571)"
       inkscape:export-filename="D:\QtProjects\KanmusuMemory\resources\g3967.png"
       inkscape:export-xdpi="9.29"
       inkscape:export-ydpi="9.29">
      <path
         inkscape:connector-curvature="0"
         id="path4896"
         d="m 130,322.36218 c 250,0 250,0 250,0"
         style="fill:none;stroke:#46494a;stroke-width:30;stroke-linecap:round;stroke-linejoin:miter;stroke-miterlimit:4;stroke-opacity:1;stroke-dasharray:none" />
      <path
         inkscape:connector-curvature="0"
         id="path4898"
         d="m 300,242.36218 80,80"
         style="fill:none;stroke:#46494a;stroke-width:30;stroke-linecap:round;stroke-linejoin:miter;stroke-miterlimit:4;stroke-opacity:1;stroke-dasharray:none" />
      <path
         inkscape:connector-curvature="0"
         id="path4898-1"
         d="m 300,403.36218 80,-80"
         style="fill:none;stroke:#46494a;stroke-width:30;stroke-linecap:round;stroke-linejoin:miter;stroke-miterlimit:4;stroke-opacity:1;stroke-dasharray:none" />
    </g>
  </g>
  <g
     inkscape:groupmode="layer"
     id="layer6"
     inkscape:label="リロード">
    <g
       id="g3833"
       transform="translate(-20.21503,12.885668)">
      <path
         sodipodi:nodetypes="czzc"
         inkscape:connector-curvature="0"
         id="path4931"
         d="m 342.59964,344.68494 c 29.97294,-43.69112 20.8275,-92.80048 -22.86362,-122.77343 -43.69111,-29.97294 -92.80049,-20.8275 -122.77343,22.86362 -29.97294,43.69111 -20.82748,92.80048 22.86363,122.77342"
         style="fill:none;stroke:#46494a;stroke-width:25;stroke-linecap:round;stroke-linejoin:miter;stroke-miterlimit:4;stroke-opacity:1;stroke-dasharray:none" />
      <path
         inkscape:connector-curvature="0"
         id="path3787"
         d="m 346.0081,347.93419 c 51.52115,-30.75016 51.52115,-30.75016 51.52115,-30.75016"
         style="fill:none;stroke:#46494a;stroke-width:25;stroke-linecap:round;stroke-linejoin:miter;stroke-miterlimit:4;stroke-opacity:1;stroke-dasharray:none" />
      <path
         inkscape:connector-curvature="0"
         id="path3787-1"
         d="m 322.62856,288.58857 c 20.47949,56.39673 20.47949,56.39673 20.47949,56.39673"
         style="fill:none;stroke:#46494a;stroke-width:25;stroke-linecap:round;stroke-linejoin:miter;stroke-miterlimit:4;stroke-opacity:1;stroke-dasharray:none" />
      <path
         sodipodi:nodetypes="czzc"
         inkscape:connector-curvature="0"
         id="path4931-7"
         d="m 358.18906,279.63329 c -8.06852,-52.36592 -48.35813,-81.89753 -100.72406,-73.82902 -52.36592,8.06852 -81.89753,48.35814 -73.82903,100.72405 8.06852,52.36593 48.35815,81.89754 100.72407,73.82902"
         style="fill:none;stroke:#46494a;stroke-width:25;stroke-linecap:round;stroke-linejoin:miter;stroke-miterlimit:4;stroke-opacity:1;stroke-dasharray:none" />
    </g>
  </g>
  <g
     inkscape:groupmode="layer"
     id="layer2"
     inkscape:label="薄い"
     style="display:none"
     sodipodi:insensitive="true">
    <g
       style="display:inline"
       id="g3967"
       transform="translate(2.2755661,-1.6377716)"
       inkscape:export-xdpi="9.29"
       inkscape:export-ydpi="9.29">
      <rect
         ry="10"
         y="177.57138"
         x="194.51015"
         height="260"
         width="135"
         id="rect2987-11"
         style="fill:#ffffff;fill-opacity:0.47668397;stroke:none;display:inline" />
    </g>
  </g>
</svg>
