<?xml version="1.0" encoding="UTF-8" standalone="no"?>
<!-- Created with Inkscape (http://www.inkscape.org/) -->

<svg
   xmlns:dc="http://purl.org/dc/elements/1.1/"
   xmlns:cc="http://creativecommons.org/ns#"
   xmlns:rdf="http://www.w3.org/1999/02/22-rdf-syntax-ns#"
   xmlns:svg="http://www.w3.org/2000/svg"
   xmlns="http://www.w3.org/2000/svg"
   xmlns:sodipodi="http://sodipodi.sourceforge.net/DTD/sodipodi-0.dtd"
   xmlns:inkscape="http://www.inkscape.org/namespaces/inkscape"
   width="210mm"
   height="297mm"
   id="svg2"
   version="1.1"
   inkscape:version="0.48.4 r9939"
   sodipodi:docname="number_guide.svg"
   inkscape:export-filename="C:\temp\char\number_guide0.png"
   inkscape:export-xdpi="90"
   inkscape:export-ydpi="90">
  <defs
     id="defs4" />
  <sodipodi:namedview
     id="base"
     pagecolor="#ffffff"
     bordercolor="#666666"
     borderopacity="1.0"
     inkscape:pageopacity="0.0"
     inkscape:pageshadow="2"
     inkscape:zoom="31.678384"
     inkscape:cx="230.0842"
     inkscape:cy="592.62404"
     inkscape:document-units="px"
     inkscape:current-layer="g3802"
     showgrid="false"
     inkscape:window-width="1495"
     inkscape:window-height="1068"
     inkscape:window-x="72"
     inkscape:window-y="21"
     inkscape:window-maximized="0">
    <inkscape:grid
       type="xygrid"
       id="grid2996" />
  </sodipodi:namedview>
  <metadata
     id="metadata7">
    <rdf:RDF>
      <cc:Work
         rdf:about="">
        <dc:format>image/svg+xml</dc:format>
        <dc:type
           rdf:resource="http://purl.org/dc/dcmitype/StillImage" />
        <dc:title></dc:title>
      </cc:Work>
    </rdf:RDF>
  </metadata>
  <g
     style="display:inline"
     inkscape:label="作業"
     id="g3802"
     inkscape:groupmode="layer"
     sodipodi:insensitive="true" />
  <g
     inkscape:label="0"
     inkscape:groupmode="layer"
     id="layer1"
     style="display:none"
     sodipodi:insensitive="true">
    <rect
       style="fill:#000000;fill-opacity:1;stroke:none"
       id="rect2998"
       width="9"
       height="13"
       x="151.11168"
       y="447.58997"
       inkscape:export-filename="d:\temp\char_guide\NumberGuide0.png"
       inkscape:export-xdpi="90"
       inkscape:export-ydpi="90" />
    <path
       style="fill:none;stroke:#ff0000;stroke-width:1px;stroke-linecap:butt;stroke-linejoin:miter;stroke-opacity:1"
       d="m 155.97084,448.09017 c -1.21277,-0.0204 -2.83411,1.47567 -3.40927,2.65165 -0.57516,1.17598 -0.44863,2.0816 -0.37881,3.15673 0.0698,1.07512 0.18644,2.33464 0.75763,3.283 0.57118,0.94835 1.82666,2.17161 3.03045,2.14657 1.20379,-0.025 2.23945,-1.14871 2.77792,-2.14658 0.53847,-0.99787 0.32191,-2.0717 0.25254,-3.28299 -0.0694,-1.2113 0.21,-2.28634 -0.37881,-3.28299 -0.58881,-0.99665 -1.43888,-2.50495 -2.65165,-2.52539 z"
       id="path3772"
       inkscape:connector-curvature="0"
       sodipodi:nodetypes="zzzzzzzzz" />
  </g>
  <g
     inkscape:groupmode="layer"
     id="layer2"
     inkscape:label="1"
     style="display:none"
     sodipodi:insensitive="true">
    <rect
       style="fill:#000000;fill-opacity:1;stroke:none"
       id="rect2998-0"
       width="9"
       height="13"
       x="161.16502"
       y="447.3468"
       inkscape:export-filename="d:\temp\char_guide\NumberGuide1.png"
       inkscape:export-xdpi="90"
       inkscape:export-ydpi="90" />
    <path
       style="fill:none;stroke:#ff0000;stroke-width:1px;stroke-linecap:butt;stroke-linejoin:miter;stroke-opacity:1"
       d="m 165.28621,448.66977 0.25254,9.97525"
       id="path3793"
       inkscape:connector-curvature="0"
       inkscape:export-filename="C:\temp\char\rect2998-1.png"
       inkscape:export-xdpi="90"
       inkscape:export-ydpi="90" />
  </g>
  <g
     inkscape:groupmode="layer"
     id="layer3"
     inkscape:label="2"
     style="display:none"
     sodipodi:insensitive="true">
    <rect
       style="fill:#000000;fill-opacity:1;stroke:none"
       id="rect2998-0-5"
       width="9"
       height="13"
       x="170.76146"
       y="447.09427"
       inkscape:export-filename="d:\temp\char_guide\NumberGuide2.png"
       inkscape:export-xdpi="90"
       inkscape:export-ydpi="90" />
    <path
       style="fill:none;stroke:#ff0000;stroke-width:1px;stroke-linecap:butt;stroke-linejoin:miter;stroke-opacity:1"
       d="m 172.35727,449.04857 c 0,0 0.94236,-0.63098 1.89404,-0.75761 0.95168,-0.12663 2.07744,-0.13735 2.77792,0.50508 0.70048,0.64243 0.41216,1.54069 0.25254,2.65165 -0.15962,1.11096 -1.51523,3.40926 -1.51523,3.40926 l -3.03045,3.78807 5.3033,0"
       id="path3814"
       inkscape:connector-curvature="0"
       sodipodi:nodetypes="czzzccc"
       inkscape:export-filename="d:\temp\char_guide\NumberGuide2.png"
       inkscape:export-xdpi="90"
       inkscape:export-ydpi="90" />
  </g>
  <g
     inkscape:groupmode="layer"
     id="layer4"
     inkscape:label="3"
     style="display:none"
     sodipodi:insensitive="true">
    <rect
       style="fill:#000000;fill-opacity:1;stroke:none"
       id="rect2998-0-5-1"
       width="9"
       height="13"
       x="180.88928"
       y="447.44489"
       inkscape:export-filename="d:\temp\char_guide\NumberGuide3.png"
       inkscape:export-xdpi="90"
       inkscape:export-ydpi="90" />
    <path
       style="fill:none;stroke:#ff0000;stroke-width:1px;stroke-linecap:butt;stroke-linejoin:miter;stroke-opacity:1"
       d="m 183.21642,449.80619 c 0,0 1.11883,-1.69111 2.14657,-1.6415 1.02774,0.0496 2.33312,0.97609 2.39911,2.27284 0.066,1.29675 -2.77791,3.40927 -2.77791,3.40927 0,0 2.23115,0.13767 2.90418,0.63134 0.67303,0.49367 0.65542,0.92678 0.63135,1.76777 -0.0241,0.84099 -0.56543,1.93051 -1.26269,2.52538 -0.69726,0.59487 -1.46734,0.95073 -2.27284,1.01015 -0.8055,0.0594 -2.27285,-0.63134 -2.27285,-0.63134"
       id="path3835"
       inkscape:connector-curvature="0"
       sodipodi:nodetypes="czzczzzzc"
       inkscape:export-filename="C:\temp\char\number_guide3.png"
       inkscape:export-xdpi="90"
       inkscape:export-ydpi="90" />
  </g>
  <g
     inkscape:groupmode="layer"
     id="layer5"
     inkscape:label="4"
     style="display:none"
     sodipodi:insensitive="true">
    <rect
       style="fill:#000000;fill-opacity:1;stroke:none"
       id="rect2998-0-5-1-7"
       width="9"
       height="13"
       x="190.9908"
       y="447.3186"
       inkscape:export-filename="d:\temp\char_guide\NumberGuide4.png"
       inkscape:export-xdpi="90"
       inkscape:export-ydpi="90" />
    <path
       style="fill:none;stroke:#ff0000;stroke-width:0.97134012px;stroke-linecap:butt;stroke-linejoin:miter;stroke-opacity:1"
       d="m 199.08127,455.99815 -7.6048,-0.2532 4.753,-7.08951 0.23765,11.01407 0,0"
       id="path3856"
       inkscape:connector-curvature="0"
       inkscape:export-filename="C:\temp\char\number_guide4.png"
       inkscape:export-xdpi="90"
       inkscape:export-ydpi="90" />
  </g>
  <g
     inkscape:groupmode="layer"
     id="layer6"
     inkscape:label="5"
     style="display:none"
     sodipodi:insensitive="true">
    <rect
       style="fill:#000000;fill-opacity:1;stroke:none"
       id="rect2998-0-5-1-7-7"
       width="9"
       height="13"
       x="201.09233"
       y="447.44489"
       inkscape:export-filename="d:\temp\char_guide\NumberGuide5.png"
       inkscape:export-xdpi="90"
       inkscape:export-ydpi="90" />
    <path
       style="fill:none;stroke:#ff0000;stroke-width:1px;stroke-linecap:butt;stroke-linejoin:miter;stroke-opacity:1"
       d="m 207.58635,448.85917 -2.77792,-0.0631 -1.38896,3.40926 c 0,0 2.24839,0.69755 3.03046,1.26269 0.78207,0.56514 1.2969,0.97028 1.64149,1.89404 0.34459,0.92376 0.53146,2.61567 0,3.40926 -0.53146,0.79359 -1.32799,0.82418 -2.14657,0.88389 -0.81858,0.0597 -2.52538,-0.63135 -2.52538,-0.63135"
       id="path3877"
       inkscape:connector-curvature="0"
       sodipodi:nodetypes="ccczzzzc"
       inkscape:export-filename="C:\temp\char\number_guide5.png"
       inkscape:export-xdpi="90"
       inkscape:export-ydpi="90" />
  </g>
  <g
     inkscape:groupmode="layer"
     id="layer7"
     inkscape:label="6"
     style="display:none"
     sodipodi:insensitive="true">
    <rect
       style="fill:#000000;fill-opacity:1;stroke:none"
       id="rect2998-0-5-1-7-7-4"
       width="9"
       height="13"
       x="211.04129"
       y="447.45432"
       inkscape:export-filename="d:\temp\char_guide\NumberGuide6.png"
       inkscape:export-xdpi="90"
       inkscape:export-ydpi="90" />
    <path
       style="fill:none;stroke:#ff0000;stroke-width:1px;stroke-linecap:butt;stroke-linejoin:miter;stroke-opacity:1"
       d="m 216.17265,448.98545 c 0,0 -1.45068,1.24319 -2.14658,2.08344 -0.6959,0.84025 -1.62182,1.97653 -1.95717,2.96732 -0.33535,0.99079 -0.36261,1.7781 -0.1894,2.71479 0.17321,0.93669 0.65338,2.13801 1.26269,2.71478 0.60931,0.57677 1.10801,0.51606 1.89403,0.44195 0.78602,-0.0741 1.72767,-0.3744 2.27285,-1.13643 0.54518,-0.76203 0.83809,-2.02468 0.69448,-2.84105 -0.14361,-0.81637 -0.58058,-1.21394 -1.13642,-1.70463 -0.55584,-0.49069 -1.35062,-1.04018 -2.14658,-1.07329 -0.79596,-0.0331 -2.20971,0.88388 -2.20971,0.88388"
       id="path3898"
       inkscape:connector-curvature="0"
       sodipodi:nodetypes="czzzzzzzzzc"
       inkscape:export-filename="C:\temp\char\number_guide6.png"
       inkscape:export-xdpi="90"
       inkscape:export-ydpi="90" />
  </g>
  <g
     inkscape:groupmode="layer"
     id="layer8"
     inkscape:label="7"
     style="display:none"
     sodipodi:insensitive="true">
    <rect
       style="fill:#000000;fill-opacity:1;stroke:none"
       id="rect2998-0-5-1-7-7-4-8"
       width="9"
       height="13"
       x="221.01555"
       y="447.31857"
       inkscape:export-filename="d:\temp\char_guide\NumberGuide7.png"
       inkscape:export-xdpi="90"
       inkscape:export-ydpi="90" />
    <path
       style="fill:none;stroke:#ff0000;stroke-width:1px;stroke-linecap:butt;stroke-linejoin:miter;stroke-opacity:1"
       d="m 223.11744,448.10155 5.74524,0 -4.60882,11.36421"
       id="path3919"
       inkscape:connector-curvature="0"
       inkscape:export-filename="d:\temp\char_guide\NumberGuide7.png"
       inkscape:export-xdpi="90"
       inkscape:export-ydpi="90"
       sodipodi:nodetypes="ccc" />
  </g>
  <g
     inkscape:groupmode="layer"
     id="layer9"
     inkscape:label="8"
     style="display:inline"
     sodipodi:insensitive="true">
    <rect
       style="fill:#000000;fill-opacity:1;stroke:none"
       id="rect2998-0-5-1-7-7-4-8-2"
       width="9"
       height="13"
       x="231.05394"
       y="447.31857"
       inkscape:export-filename="d:\temp\char_guide\NumberGuide8.png"
       inkscape:export-xdpi="90"
       inkscape:export-ydpi="90" />
    <path
       style="fill:none;stroke:#ff0000;stroke-width:1px;stroke-linecap:butt;stroke-linejoin:miter;stroke-opacity:1"
       d="m 235.52338,447.84901 c -0.71364,-0.0317 -1.38746,0.30515 -1.86247,0.82075 -0.475,0.51561 -0.90583,1.38678 -0.85232,2.02031 0.0535,0.63353 0.28126,1.17311 1.04173,1.9256 0.76047,0.75249 2.83141,1.61041 3.40926,2.36755 0.57785,0.75714 0.58471,0.76338 0.63134,1.45209 0.0466,0.68871 0.006,1.93126 -0.91544,2.27285 -0.92128,0.34158 -2.27564,0.39363 -3.15673,0.15783 -0.88109,-0.2358 -1.52697,-1.40892 -1.5468,-1.98873 -0.0198,-0.57981 0.14878,-1.08111 0.97859,-1.92561 0.82982,-0.8445 2.59646,-1.58531 3.44083,-2.58852 0.84437,-1.00321 1.05098,-1.28063 1.04171,-1.92559 -0.009,-0.64497 -0.4248,-1.40487 -0.88387,-1.8309 -0.4591,-0.42604 -0.61218,-0.72591 -1.32583,-0.75763 z"
       id="path3940"
       inkscape:connector-curvature="0"
       sodipodi:nodetypes="zzzzzzzzzzzzzz"
       inkscape:export-filename="d:\temp\char_guide\NumberGuide8.png"
       inkscape:export-xdpi="90"
       inkscape:export-ydpi="90" />
  </g>
  <g
     inkscape:groupmode="layer"
     id="layer10"
     inkscape:label="9"
     style="display:none"
     sodipodi:insensitive="true">
    <rect
       style="fill:#000000;fill-opacity:1;stroke:none"
       id="rect2998-0-5-1-7-7-4-8-2-5"
       width="9"
       height="13"
       x="241.03021"
       y="447.47305"
       inkscape:export-filename="d:\temp\char_guide\NumberGuide9.png"
       inkscape:export-xdpi="90"
       inkscape:export-ydpi="90" />
    <path
       style="fill:none;stroke:#ff0000;stroke-width:1px;stroke-linecap:butt;stroke-linejoin:miter;stroke-opacity:1"
       d="m 247.99245,453.78366 c 0,0 -0.93414,0.91022 -1.6415,1.01016 -0.70736,0.0999 -1.56597,-0.23566 -2.27284,-0.63135 -0.70687,-0.39569 -1.5245,-0.9469 -1.8309,-1.70463 -0.3064,-0.75773 -0.18965,-1.60376 0.12627,-2.39911 0.31592,-0.79535 0.71418,-1.5524 1.45209,-1.89404 0.7379,-0.34163 1.84301,-0.4459 2.46225,-0.1894 0.61924,0.2565 0.95219,0.68836 1.32582,1.32582 0.37363,0.63746 0.64888,1.32896 0.69448,2.46225 0.0456,1.13329 -0.50067,3.50513 -1.01015,4.48255 -0.50949,0.97742 -1.12072,1.03443 -1.8309,1.70463 -0.71018,0.6702 -2.27284,1.95717 -2.27284,1.95717"
       id="path3961"
       inkscape:connector-curvature="0"
       sodipodi:nodetypes="czzzzzzzzzzc" />
  </g>
</svg>
