<?xml version="1.0" encoding="UTF-8" standalone="no"?>
<!-- Created with Inkscape (http://www.inkscape.org/) -->

<svg
   xmlns:dc="http://purl.org/dc/elements/1.1/"
   xmlns:cc="http://creativecommons.org/ns#"
   xmlns:rdf="http://www.w3.org/1999/02/22-rdf-syntax-ns#"
   xmlns:svg="http://www.w3.org/2000/svg"
   xmlns="http://www.w3.org/2000/svg"
   xmlns:xlink="http://www.w3.org/1999/xlink"
   xmlns:sodipodi="http://sodipodi.sourceforge.net/DTD/sodipodi-0.dtd"
   xmlns:inkscape="http://www.inkscape.org/namespaces/inkscape"
   width="210mm"
   height="297mm"
   id="svg2"
   version="1.1"
   inkscape:version="0.48.4 r9939"
   sodipodi:docname="shiromemo_icon.svg">
  <defs
     id="defs4">
    <linearGradient
       id="linearGradient3785">
      <stop
         style="stop-color:#bae8f7;stop-opacity:1;"
         offset="0"
         id="stop3787" />
      <stop
         style="stop-color:#ffffff;stop-opacity:1;"
         offset="1"
         id="stop3789" />
    </linearGradient>
    <linearGradient
       inkscape:collect="always"
       xlink:href="#linearGradient3785"
       id="linearGradient3791"
       x1="380"
       y1="112.36218"
       x2="380"
       y2="652.36218"
       gradientUnits="userSpaceOnUse" />
  </defs>
  <sodipodi:namedview
     id="base"
     pagecolor="#ffffff"
     bordercolor="#666666"
     borderopacity="1.0"
     inkscape:pageopacity="0.0"
     inkscape:pageshadow="2"
     inkscape:zoom="0.98994949"
     inkscape:cx="405.86311"
     inkscape:cy="678.91356"
     inkscape:document-units="px"
     inkscape:current-layer="layer3"
     showgrid="true"
     inkscape:window-width="1176"
     inkscape:window-height="881"
     inkscape:window-x="234"
     inkscape:window-y="234"
     inkscape:window-maximized="0">
    <inkscape:grid
       type="xygrid"
       id="grid2985" />
  </sodipodi:namedview>
  <metadata
     id="metadata7">
    <rdf:RDF>
      <cc:Work
         rdf:about="">
        <dc:format>image/svg+xml</dc:format>
        <dc:type
           rdf:resource="http://purl.org/dc/dcmitype/StillImage" />
        <dc:title></dc:title>
      </cc:Work>
    </rdf:RDF>
  </metadata>
  <g
     inkscape:groupmode="layer"
     id="layer2"
     inkscape:label="枠"
     sodipodi:insensitive="true">
    <rect
       style="fill:url(#linearGradient3791);fill-opacity:1;stroke:#000000;stroke-width:20;stroke-linecap:round;stroke-linejoin:round;stroke-miterlimit:4;stroke-opacity:1;stroke-dasharray:none;stroke-dashoffset:0"
       id="rect3761"
       width="540"
       height="540"
       x="126.75118"
       y="110.53982"
       ry="60" />
  </g>
  <g
     inkscape:groupmode="layer"
     id="layer3"
     inkscape:label="城">
    <path
       style="fill:#1e9890;fill-opacity:1;stroke:#000000;stroke-width:20;stroke-linecap:round;stroke-linejoin:round;stroke-miterlimit:4;stroke-opacity:1;stroke-dasharray:none"
       d="m 130.99485,521.04235 330,0 120,130 -400,0 -30,-20 -20,-40 z"
       id="path3797"
       inkscape:connector-curvature="0" />
    <path
       style="fill:none;stroke:#000000;stroke-width:20;stroke-linecap:round;stroke-linejoin:miter;stroke-miterlimit:4;stroke-opacity:1;stroke-dasharray:none"
       d="m 180.99485,563.76823 c 50,60 50,60 50,60"
       id="path3799"
       inkscape:connector-curvature="0" />
    <path
       style="fill:none;stroke:#000000;stroke-width:20;stroke-linecap:round;stroke-linejoin:miter;stroke-miterlimit:4;stroke-opacity:1;stroke-dasharray:none"
       d="m 269.07607,563.76823 c 50,60 50,60 50,60"
       id="path3799-1"
       inkscape:connector-curvature="0" />
    <path
       style="fill:none;stroke:#000000;stroke-width:20;stroke-linecap:round;stroke-linejoin:miter;stroke-miterlimit:4;stroke-opacity:1;stroke-dasharray:none"
       d="m 358.37049,563.76823 c 50,60 50,60 50,60"
       id="path3799-7"
       inkscape:connector-curvature="0" />
    <path
       style="fill:none;stroke:#000000;stroke-width:20;stroke-linecap:round;stroke-linejoin:miter;stroke-miterlimit:4;stroke-opacity:1;stroke-dasharray:none"
       d="m 432.30958,563.76823 c 50,60 50,60 50,60"
       id="path3799-4"
       inkscape:connector-curvature="0" />
  </g>
  <g
     inkscape:label="シャチ"
     inkscape:groupmode="layer"
     id="layer1"
     sodipodi:insensitive="true">
    <path
       style="fill:#eed500;fill-opacity:1;stroke:#000000;stroke-width:20;stroke-linecap:butt;stroke-linejoin:round;stroke-miterlimit:4;stroke-opacity:1;stroke-dasharray:none"
       d="m 330,434.36218 c 0,0 -100,-4 -120,8 -20,12 0.10051,42.10051 10,52 20,20.00001 40,40.00001 80,38 40,-2 40,0 40,0 0,0 -50,10 -70,10 -20,0 20,20 50,20 30,0 29.91038,0.47697 90,2 60.08962,1.52303 80,-2 80,-2 0,0 79.81955,-96.12078 80,-160 0.18045,-63.87922 -30,-130 -30,-130 0,0 13.00627,-16.262 30,-30 16.99373,-13.73799 40,-70 40,-70 0,0 -36.62413,21.35271 -60,30 -23.37587,8.6473 -20,10 -60,20 -40,10 -40,10 -70,10 -30,0 -70,0 -70,0 0,0 30.15829,21.80496 50,35 19.84171,13.19504 70,15 70,15 0,0 -20,80 -30,100 -10,20 -40,40 -40,40 -20,20 -30,10 -70,12 z"
       id="path2989"
       inkscape:connector-curvature="0"
       sodipodi:nodetypes="csszczzzczczczzzczczcc" />
    <path
       sodipodi:type="arc"
       style="fill:#ffffff;fill-opacity:1;stroke:#000000;stroke-width:10.09343529;stroke-linecap:round;stroke-linejoin:round;stroke-miterlimit:4;stroke-opacity:1;stroke-dasharray:none;stroke-dashoffset:0"
       id="path2987"
       sodipodi:cx="280"
       sodipodi:cy="472.36218"
       sodipodi:rx="20"
       sodipodi:ry="20"
       d="m 300,472.36218 a 20,20 0 1 1 -40,0 20,20 0 1 1 40,0 z"
       transform="matrix(2.6474455,0,0,2.8198078,-419.98036,-891.75126)" />
    <path
       sodipodi:type="arc"
       style="fill:#000000;fill-opacity:1;stroke:#000000;stroke-width:20;stroke-linecap:round;stroke-linejoin:round;stroke-miterlimit:4;stroke-opacity:1;stroke-dasharray:none;stroke-dashoffset:0"
       id="path3763"
       sodipodi:cx="310"
       sodipodi:cy="447.36218"
       sodipodi:rx="10"
       sodipodi:ry="15"
       d="m 320,447.36218 a 10,15 0 1 1 -20,0 10,15 0 1 1 20,0 z" />
    <path
       style="fill:none;stroke:#000000;stroke-width:20;stroke-linecap:round;stroke-linejoin:round;stroke-miterlimit:4;stroke-opacity:1;stroke-dasharray:none"
       d="m 420,517.36218 40,-95 15,35 65,-55 -25,70 55,0 -95,55"
       id="path3863"
       inkscape:connector-curvature="0"
       sodipodi:nodetypes="ccccccc" />
  </g>
</svg>
